<mxfile type="github" version="12.2.3" host="www.draw.io" modified="2019-11-09T14:15:09.085Z" agent="Mozilla/5.0 (Windows NT 10.0; Win64; x64) AppleWebKit/537.36 (KHTML, like Gecko) Chrome/70.0.3538.102 Safari/537.36 Edge/18.18362" etag="iWJu0x1N3rqDoos-uqzX" pages="1">
  <diagram id="peaQ-XUvlgVX9YTNL88C" name="Page-1">
    <mxGraphModel grid="1" dx="891" dy="630" gridSize="10" guides="1" tooltips="1" connect="1" arrows="1" fold="1" page="1" pageScale="1" pageWidth="827" pageHeight="1169" math="0" shadow="0">
      <root>
        <mxCell id="0"/>
        <mxCell id="1" parent="0"/>
        <mxCell id="KwKRHs7Nuc0jum_Jgg84-1" value="" parent="1" vertex="1" style="group;rounded=0;labelBackgroundColor=none;fillColor=none;fontColor=#000000;align=center;html=1;" connectable="0">
          <mxGeometry as="geometry" height="180" width="160" y="50" x="70"/>
        </mxCell>
        <object id="KwKRHs7Nuc0jum_Jgg84-2" label="name&lt;div&gt;[Person]&lt;/div&gt;&lt;div&gt;&lt;br&gt;&lt;/div&gt;&lt;div&gt;Beschreibung&lt;/div&gt;" placeholders="1" c4Name="name" c4Type="body" c4Description="Beschreibung">
          <mxCell parent="KwKRHs7Nuc0jum_Jgg84-1" vertex="1" style="rounded=1;whiteSpace=wrap;html=1;labelBackgroundColor=none;fillColor=#dae8fc;fontColor=#000000;align=center;arcSize=33;strokeColor=#6c8ebf;">
            <mxGeometry as="geometry" height="110" width="160" y="70"/>
          </mxCell>
        </object>
        <mxCell id="KwKRHs7Nuc0jum_Jgg84-3" value="" parent="KwKRHs7Nuc0jum_Jgg84-1" vertex="1" style="ellipse;whiteSpace=wrap;html=1;aspect=fixed;rounded=0;labelBackgroundColor=none;fillColor=#dae8fc;fontSize=12;fontColor=#000000;align=center;strokeColor=#6c8ebf;">
          <mxGeometry as="geometry" height="80" width="80" x="40"/>
        </mxCell>
        <object id="KwKRHs7Nuc0jum_Jgg84-4" label="name&lt;div&gt;[Software System]&lt;/div&gt;&lt;div&gt;&lt;br&gt;&lt;/div&gt;&lt;div&gt;Beschreibung&lt;/div&gt;" placeholders="1" c4Name="name" c4Type="SoftwareSystem" c4Description="Beschreibung">
          <mxCell parent="1" vertex="1" style="rounded=1;whiteSpace=wrap;html=1;labelBackgroundColor=none;fillColor=#dae8fc;fontColor=#000000;align=center;arcSize=7;strokeColor=#6c8ebf;">
            <mxGeometry as="geometry" height="110" width="160" y="450" x="90"/>
          </mxCell>
        </object>
        <object id="KwKRHs7Nuc0jum_Jgg84-7" label="&lt;div style=&quot;text-align: left&quot;&gt;&lt;div style=&quot;text-align: center&quot;&gt;&lt;b&gt;Beschreibung&lt;/b&gt;&lt;/div&gt;&lt;div style=&quot;text-align: center&quot;&gt;[technology]&lt;/div&gt;&lt;/div&gt;" placeholders="1" c4Type="Relationship" c4Description="Beschreibung" c4Technology="technology">
          <mxCell parent="1" style="edgeStyle=none;rounded=0;html=1;entryX=0.619;entryY=0.962;jettySize=auto;orthogonalLoop=1;strokeColor=#A8A8A8;strokeWidth=2;fontColor=#000000;jumpStyle=none;dashed=1;exitX=0.53;exitY=-0.057;exitDx=0;exitDy=0;exitPerimeter=0;entryDx=0;entryDy=0;entryPerimeter=0;" target="KwKRHs7Nuc0jum_Jgg84-2" source="KwKRHs7Nuc0jum_Jgg84-4" edge="1">
            <mxGeometry as="geometry" width="160" relative="1">
              <mxPoint as="sourcePoint" y="580" x="70"/>
              <mxPoint as="targetPoint" y="580" x="230"/>
            </mxGeometry>
          </mxCell>
        </object>
      </root>
    </mxGraphModel>
  </diagram>
</mxfile>
